<?xml version="1.0" standalone="no"?><!DOCTYPE svg PUBLIC "-//W3C//DTD SVG 1.1//EN" "http://www.w3.org/Graphics/SVG/1.1/DTD/svg11.dtd"><svg t="1547726486544" class="icon" style="" viewBox="0 0 1024 1024" version="1.1" xmlns="http://www.w3.org/2000/svg" p-id="10275" xmlns:xlink="http://www.w3.org/1999/xlink" width="128" height="128"><defs><style type="text/css"></style></defs><path d="M880.64 430.08V353.28l-276.48-276.48H143.36v353.28H76.288v399.36H143.36v117.76h737.28v-117.76h66.048V430.08H880.64z m-215.04-204.8l66.56 66.56h-66.56V225.28zM204.8 138.24h399.36v215.04h215.04v76.8H204.8V138.24z m479.232 487.424c0 99.328-64.512 143.872-128 143.872-73.216 0-124.416-57.344-124.416-138.752 0-84.48 52.736-143.36 128-143.36 73.216 0 124.416 56.832 124.416 138.24z m-353.28 24.064c-49.664-17.408-73.728-44.544-73.728-82.432 0-46.592 39.424-80.384 93.184-80.384 32.256 0 52.224 8.704 61.44 13.824l9.216 5.12-16.896 50.688-13.312-7.168c-8.704-4.608-22.528-10.24-40.96-10.24-25.088 0-33.792 13.312-33.792 24.576 0 13.824 6.144 22.528 41.472 35.84 35.328 13.824 71.68 34.304 71.68 84.992 0 58.368-50.176 84.48-99.84 84.48-25.6 0-54.784-7.168-70.656-17.92l-7.68-5.12 15.872-51.712 14.336 8.704c14.336 9.216 33.792 14.336 50.688 14.336 24.576 0 39.424-11.264 39.424-29.696-2.048-14.848-8.192-25.088-40.448-37.888zM109.056 762.88l-9.728-4.096 9.216-51.712 14.336 5.632c3.072 1.024 11.264 4.096 22.528 4.096 18.432 0 32.768-3.584 32.768-48.64V491.52h57.856v179.2c0 81.92-47.616 98.816-88.064 98.816-12.8 0-28.672-3.072-38.912-6.656zM819.2 885.76H204.8v-56.32h614.4v56.32z m93.184-120.32H860.16l-82.432-132.096c-8.192-12.8-15.36-25.088-22.016-35.84 0.512 14.848 0.512 30.72 0.512 49.152v118.784h-55.808V491.52h54.784l83.456 131.584c6.656 10.24 12.8 20.48 18.432 30.72-0.512-14.848-0.512-29.696-0.512-45.568V491.52h55.808v273.92z" p-id="10276"></path><path d="M491.008 629.76c0 42.496 20.992 88.064 66.56 88.064 46.08 0 67.072-45.568 67.072-90.624 0-42.496-20.992-88.064-66.56-88.064-30.72 0-67.072 23.552-67.072 90.624z" p-id="10277"></path></svg>