<?xml version="1.0" standalone="no"?><!DOCTYPE svg PUBLIC "-//W3C//DTD SVG 1.1//EN" "http://www.w3.org/Graphics/SVG/1.1/DTD/svg11.dtd"><svg t="1547726083741" class="icon" style="" viewBox="0 0 1024 1024" version="1.1" xmlns="http://www.w3.org/2000/svg" p-id="4733" xmlns:xlink="http://www.w3.org/1999/xlink" width="128" height="128"><defs><style type="text/css"></style></defs><path d="M823.929312 558.073338c-13.003152 0-23.901363 9.724479-25.498744 22.62837C780.597411 724.732056 659.20669 836.167031 512.105401 836.167031c-159.388127 0-288.603047-130.812301-288.603047-292.174386 0-146.338926 106.272395-267.535219 244.940618-288.842501 15.594163-2.39556 29.676903 9.609869 29.676903 25.38618l0 67.043952c0 19.558451 20.985964 31.943526 38.107923 22.488177l226.578412-125.120672c17.016559-9.397021 17.835204-33.556257 1.494027-44.084031L537.721825 54.892191c-17.095353-11.013845-39.602973 1.25969-39.602973 21.595854l0 68.116377c0 13.175067-9.967002 24.228821-23.076578 25.547863-187.496302 18.86158-333.915046 179.02128-333.915046 373.786125 0 207.474308 166.124552 375.656729 371.046734 375.656729 190.667527 0 347.734796-145.576563 368.68392-332.927555 1.704828-15.242146-10.196223-28.594245-25.533536-28.594245L823.929312 558.073338z" p-id="4734"></path></svg>